# xmcd
#
# Track frame offsets:
#   150
#   20818
#   37229
#   58344
#   77165
#   97127
#   111035
#   129439
#   145109
#   170146
#   188258
#   208768
#   223249
#
# Disc length: 3169 seconds
#
# Revision: 0
# Processed by: cddbd v1.5.2PL0 Copyright (c) Steve Scherf et al.
# Submitted via: GXTranscoder 2.0.1939
#
DISCID=c90c5f0d
DTITLE=ST.MARTIN - Mediterrán Éjszakák
DYEAR=2008
DGENRE=Blues
TTITLE0=Ne esküdj, helyette csókolj!
TTITLE1=Az Idõ szárnyon jár
TTITLE2=Ajajo, ajaje
TTITLE3=Táncoltak a halak a Víz felett
TTITLE4=A titkokat nem!
TTITLE5=Gördülö Idõszekér
TTITLE6=Bûvös szem a Földi Nap
TTITLE7=Ízig-vérig Bossa Nova
TTITLE8=Pireus Gyermekei
TTITLE9=Popcorn
TTITLE10=Álmunk és végzetünk
TTITLE11=Legördült egy könycsepp
TTITLE12=Csevegõ Szaxofon
EXTD=
EXTT0=
EXTT1=
EXTT2=
EXTT3=
EXTT4=
EXTT5=
EXTT6=
EXTT7=
EXTT8=
EXTT9=
EXTT10=
EXTT11=
EXTT12=
PLAYORDER=
